<?xml version="1.0" encoding="UTF-8"?>
<svg width="328px" height="500px" viewBox="0 0 328 500" version="1.1" xmlns="http://www.w3.org/2000/svg" xmlns:xlink="http://www.w3.org/1999/xlink">
    <!-- Generator: Sketch 62 (91390) - https://sketch.com -->
    <title>clock</title>
    <desc>Created with Sketch.</desc>
    <g id="Page-1" stroke="none" stroke-width="1" fill="none" fill-rule="evenodd">
        <g id="clock" fill="#FFFFFF" fill-rule="nonzero">
            <path d="M299.167969,131.632812 L299.167969,96.25 L304.390625,96.25 C317.238281,96.285156 327.722656,85.980469 327.917969,73.136719 L327.917969,23.148438 C327.726562,10.296875 317.246094,-0.015625 304.390625,-1.77321927e-05 L23.941406,-1.77321927e-05 C11.085938,-0.015625 0.605469,10.296875 0.417969,23.148438 L0.417969,73.136719 C0.613281,85.980469 11.09375,96.285156 23.941406,96.25 L29.167969,96.25 L29.167969,131.632812 C29.148438,148.390625 36.785156,164.238281 49.902344,174.664062 L143.941406,249.847656 L51.75,321.359375 C38.253906,331.757812 30.363281,347.855469 30.417969,364.898438 L30.417969,403.75 L23.941406,403.75 C11.09375,403.714844 0.613281,414.019531 0.417969,426.863281 L0.417969,476.851562 C0.605469,489.703125 11.085938,500.015625 23.941406,500.000018 L304.390625,500.000018 C317.246094,500.015625 327.726562,489.703125 327.917969,476.851562 L327.917969,426.863281 C327.722656,414.019531 317.238281,403.714844 304.390625,403.75 L300.417969,403.75 L300.417969,365.144531 C300.339844,347.933594 292.277344,331.734375 278.59375,321.292969 L184.527344,249.75 L278.449219,174.660156 C291.5625,164.234375 299.195312,148.382812 299.167969,131.632812 Z M25.417969,25 L302.917969,25 L302.917969,71.25 L25.417969,71.25 L25.417969,25 Z M302.917969,475 L25.417969,475 L25.417969,428.75 L40.761719,428.75 C41.480469,428.75 42.207031,428.953125 42.960938,428.953125 C43.710938,428.953125 44.445312,428.75 45.164062,428.75 L285.554688,428.75 C286.269531,428.75 287.003906,428.953125 287.753906,428.953125 C288.507812,428.953125 289.238281,428.75 289.953125,428.75 L302.917969,428.75 L302.917969,475 Z M275.417969,365.144531 L275.417969,403.75 L55.4179029,403.75 L55.4179029,364.898438 C55.398438,355.585938 59.707031,346.792969 67.089844,341.113281 L164.230469,265.761719 L263.453125,341.1875 C270.9375,346.890625 275.359375,355.738281 275.417969,365.144531 L275.417969,365.144531 Z M262.8125,155.136719 L164.191406,233.996094 L65.535156,155.136719 C58.355469,149.449219 54.167969,140.792969 54.167969,131.632812 L54.167969,96.25 L274.167969,96.25 L274.167969,131.632812 C274.167969,140.792969 269.988281,149.445312 262.8125,155.136719 Z" id="Shape"></path>
        </g>
    </g>
</svg>