<svg width="24" height="24" viewBox="0 0 24 24" xmlns="http://www.w3.org/2000/svg"><title>multiple pages</title><g fill="none" class="nc-icon-wrapper"><path d="M7 18h7" stroke="#b7b7b7" stroke-width="2" stroke-linecap="round" stroke-linejoin="round"/><path d="M7 14h1" stroke="#b7b7b7" stroke-width="2" stroke-linecap="round" stroke-linejoin="round"/><path d="M7 10h3" stroke="#b7b7b7" stroke-width="2" stroke-linecap="round" stroke-linejoin="round"/><path d="M7 2h9.5L21 6.5V19" stroke="#b7b7b7" stroke-width="2" stroke-linecap="round" stroke-linejoin="round"/><path d="M3 20.5v-14A1.5 1.5 0 0 1 4.5 5h9.752a.6.6 0 0 1 .424.176l3.148 3.148A.6.6 0 0 1 18 8.75V20.5a1.5 1.5 0 0 1-1.5 1.5h-12A1.5 1.5 0 0 1 3 20.5z" stroke="#b7b7b7" stroke-width="2" stroke-linecap="round" stroke-linejoin="round"/><path d="M14 8.4V5.354a.354.354 0 0 1 .604-.25l3.292 3.292a.353.353 0 0 1-.25.604H14.6a.6.6 0 0 1-.6-.6z" fill="#b7b7b7" stroke="#b7b7b7" stroke-width="2" stroke-linecap="round" stroke-linejoin="round"/></g></svg>