<?xml version="1.0" encoding="UTF-8"?>
<svg width="512px" height="512px" viewBox="0 0 512 512" version="1.1" xmlns="http://www.w3.org/2000/svg" xmlns:xlink="http://www.w3.org/1999/xlink">
    <!-- Generator: Sketch 62 (91390) - https://sketch.com -->
    <title>noise</title>
    <desc>Created with Sketch.</desc>
    <g id="Page-1" stroke="none" stroke-width="1" fill="none" fill-rule="evenodd">
        <g id="noise" fill-rule="nonzero">
            <path d="M43.197,446.18 C68.931,471.913 108.62,474.88 137.589,455.719 L189.489,507.619 C195.345,513.476 204.843,513.478 210.702,507.619 L253.129,465.192 C258.984,459.337 258.986,449.836 253.129,443.979 L202.415,393.265 C303.612,297.457 407.816,290.8 440.28,279.42 C445.523,278.109 449.655,274.08 451.097,268.872 C452.54,263.664 451.069,258.083 447.248,254.261 L213.903,20.916 C210.083,17.095 204.503,15.625 199.293,17.067 C194.085,18.51 190.056,22.642 188.745,27.885 C177.723,58.696 170.395,170.49 67.003,273.882 C59.981,280.904 26.298,314.587 21.984,318.901 C-7.326,348.21 -7.331,395.653 21.984,424.967 L43.197,446.18 Z M200.096,475.8 L159.87,435.574 L181.083,414.361 L221.31,454.588 L200.096,475.8 Z M96.117,286.968 C139.752,241.049 172.828,186.602 193.144,127.437 L340.727,275.02 C281.561,295.337 227.114,328.412 181.196,372.047 L96.117,286.968 Z M211.423,60.862 L407.302,256.741 C386.674,261.91 380.016,263.541 373.381,265.247 L202.917,94.784 C204.532,88.504 207.676,75.814 211.423,60.862 L211.423,60.862 Z M43.197,340.114 L75.017,308.294 L159.87,393.147 L128.05,424.967 C110.505,442.512 81.956,442.513 64.41,424.967 L43.197,403.754 C25.612,386.169 25.608,357.702 43.197,340.114 Z" id="Shape" fill="#000000"></path>
            <path d="M316.017,91.007 C324.301,91.007 331.017,84.291 331.017,76.007 L331.017,15.007 C331.017,6.723 324.301,0.007 316.017,0.007 C307.733,0.007 301.017,6.723 301.017,15.007 L301.017,76.007 C301.017,84.292 307.733,91.007 316.017,91.007 Z" id="Path" fill="#FF5E5C"></path>
            <path d="M369.309,119.424 C376.733,123.136 385.736,120.11 389.434,112.716 L410.127,71.33 L425.411,86.614 C428.808,90.011 433.627,91.575 438.372,90.822 C443.117,90.068 447.213,87.087 449.39,82.804 L480.39,21.804 C484.143,14.419 481.199,5.389 473.814,1.636 C466.428,-2.118 457.398,0.827 453.646,8.213 L432.01,50.787 L416.625,35.402 C413.216,31.993 408.375,30.43 403.616,31.202 C398.857,31.974 394.759,34.988 392.602,39.3 L362.602,99.3 C358.896,106.709 361.899,115.719 369.309,119.424 L369.309,119.424 Z" id="Path" fill="#FF5E5C"></path>
            <path d="M447.568,126.438 C444.875,123.187 440.936,121.221 436.718,121.024 C432.489,120.825 428.395,122.416 425.41,125.401 L395.41,155.401 C389.552,161.259 389.552,170.756 395.41,176.614 C401.267,182.472 410.765,182.472 416.623,176.614 L434.975,158.263 L454.466,181.79 C460.453,189.017 471.535,189.032 477.542,181.821 L508.542,144.608 C513.844,138.243 512.983,128.785 506.618,123.482 C500.252,118.179 490.794,119.042 485.493,125.406 L466.05,148.746 L447.568,126.438 Z" id="Path" fill="#FF5E5C"></path>
        </g>
    </g>
</svg>