<svg width="24" height="24" viewBox="0 0 24 24" xmlns="http://www.w3.org/2000/svg"><title>page flip</title><g fill="none" class="nc-icon-wrapper"><path d="M12 11h5" stroke="#b7b7b7" stroke-width="2" stroke-linecap="round" stroke-linejoin="round"/><path d="M12 7h5" stroke="#b7b7b7" stroke-width="2" stroke-linecap="round" stroke-linejoin="round"/><path d="M8 15V3.6a.6.6 0 0 1 .6-.6h11.8a.6.6 0 0 1 .6.6V17a4 4 0 0 1-4 4m-9-6H5a2 2 0 0 0-2 2v1a3 3 0 0 0 3 3h11m-9-6h4.4c.331 0 .603.267.63.597C13.153 17.115 13.78 21 17 21" stroke="#b7b7b7" stroke-width="2" stroke-linecap="round" stroke-linejoin="round"/></g></svg>