<?xml version="1.0" encoding="UTF-8"?>
<svg width="84px" height="244px" viewBox="0 0 84 244" version="1.1" xmlns="http://www.w3.org/2000/svg" xmlns:xlink="http://www.w3.org/1999/xlink">
    <!-- Generator: Sketch 62 (91390) - https://sketch.com -->
    <title>Group</title>
    <desc>Created with Sketch.</desc>
    <g id="Page-1" stroke="none" stroke-width="1" fill="none" fill-rule="evenodd">
        <g id="Desktop" transform="translate(-663.000000, -1453.000000)" fill="#D8D8D8">
            <g id="Group" transform="translate(663.000000, 1453.000000)">
                <circle id="Oval" cx="2" cy="2" r="2"></circle>
                <circle id="Oval-Copy-48" cx="2" cy="130" r="2"></circle>
                <circle id="Oval-Copy-24" cx="2" cy="66" r="2"></circle>
                <circle id="Oval-Copy-49" cx="2" cy="194" r="2"></circle>
                <circle id="Oval-Copy-12" cx="2" cy="34" r="2"></circle>
                <circle id="Oval-Copy-50" cx="2" cy="162" r="2"></circle>
                <circle id="Oval-Copy-25" cx="2" cy="98" r="2"></circle>
                <circle id="Oval-Copy-51" cx="2" cy="226" r="2"></circle>
                <circle id="Oval-Copy-6" cx="2" cy="18" r="2"></circle>
                <circle id="Oval-Copy-52" cx="2" cy="146" r="2"></circle>
                <circle id="Oval-Copy-26" cx="2" cy="82" r="2"></circle>
                <circle id="Oval-Copy-53" cx="2" cy="210" r="2"></circle>
                <circle id="Oval-Copy-13" cx="2" cy="50" r="2"></circle>
                <circle id="Oval-Copy-54" cx="2" cy="178" r="2"></circle>
                <circle id="Oval-Copy-27" cx="2" cy="114" r="2"></circle>
                <circle id="Oval-Copy-55" cx="2" cy="242" r="2"></circle>
                <circle id="Oval-Copy" cx="18" cy="2" r="2"></circle>
                <circle id="Oval-Copy-56" cx="18" cy="130" r="2"></circle>
                <circle id="Oval-Copy-28" cx="18" cy="66" r="2"></circle>
                <circle id="Oval-Copy-57" cx="18" cy="194" r="2"></circle>
                <circle id="Oval-Copy-14" cx="18" cy="34" r="2"></circle>
                <circle id="Oval-Copy-58" cx="18" cy="162" r="2"></circle>
                <circle id="Oval-Copy-29" cx="18" cy="98" r="2"></circle>
                <circle id="Oval-Copy-59" cx="18" cy="226" r="2"></circle>
                <circle id="Oval-Copy-7" cx="18" cy="18" r="2"></circle>
                <circle id="Oval-Copy-60" cx="18" cy="146" r="2"></circle>
                <circle id="Oval-Copy-30" cx="18" cy="82" r="2"></circle>
                <circle id="Oval-Copy-61" cx="18" cy="210" r="2"></circle>
                <circle id="Oval-Copy-15" cx="18" cy="50" r="2"></circle>
                <circle id="Oval-Copy-62" cx="18" cy="178" r="2"></circle>
                <circle id="Oval-Copy-31" cx="18" cy="114" r="2"></circle>
                <circle id="Oval-Copy-63" cx="18" cy="242" r="2"></circle>
                <circle id="Oval-Copy-2" cx="34" cy="2" r="2"></circle>
                <circle id="Oval-Copy-64" cx="34" cy="130" r="2"></circle>
                <circle id="Oval-Copy-32" cx="34" cy="66" r="2"></circle>
                <circle id="Oval-Copy-65" cx="34" cy="194" r="2"></circle>
                <circle id="Oval-Copy-16" cx="34" cy="34" r="2"></circle>
                <circle id="Oval-Copy-66" cx="34" cy="162" r="2"></circle>
                <circle id="Oval-Copy-33" cx="34" cy="98" r="2"></circle>
                <circle id="Oval-Copy-67" cx="34" cy="226" r="2"></circle>
                <circle id="Oval-Copy-8" cx="34" cy="18" r="2"></circle>
                <circle id="Oval-Copy-68" cx="34" cy="146" r="2"></circle>
                <circle id="Oval-Copy-34" cx="34" cy="82" r="2"></circle>
                <circle id="Oval-Copy-69" cx="34" cy="210" r="2"></circle>
                <circle id="Oval-Copy-17" cx="34" cy="50" r="2"></circle>
                <circle id="Oval-Copy-70" cx="34" cy="178" r="2"></circle>
                <circle id="Oval-Copy-35" cx="34" cy="114" r="2"></circle>
                <circle id="Oval-Copy-71" cx="34" cy="242" r="2"></circle>
                <circle id="Oval-Copy-3" cx="50" cy="2" r="2"></circle>
                <circle id="Oval-Copy-72" cx="50" cy="130" r="2"></circle>
                <circle id="Oval-Copy-36" cx="50" cy="66" r="2"></circle>
                <circle id="Oval-Copy-73" cx="50" cy="194" r="2"></circle>
                <circle id="Oval-Copy-18" cx="50" cy="34" r="2"></circle>
                <circle id="Oval-Copy-74" cx="50" cy="162" r="2"></circle>
                <circle id="Oval-Copy-37" cx="50" cy="98" r="2"></circle>
                <circle id="Oval-Copy-75" cx="50" cy="226" r="2"></circle>
                <circle id="Oval-Copy-9" cx="50" cy="18" r="2"></circle>
                <circle id="Oval-Copy-76" cx="50" cy="146" r="2"></circle>
                <circle id="Oval-Copy-38" cx="50" cy="82" r="2"></circle>
                <circle id="Oval-Copy-77" cx="50" cy="210" r="2"></circle>
                <circle id="Oval-Copy-19" cx="50" cy="50" r="2"></circle>
                <circle id="Oval-Copy-78" cx="50" cy="178" r="2"></circle>
                <circle id="Oval-Copy-39" cx="50" cy="114" r="2"></circle>
                <circle id="Oval-Copy-79" cx="50" cy="242" r="2"></circle>
                <circle id="Oval-Copy-4" cx="66" cy="2" r="2"></circle>
                <circle id="Oval-Copy-80" cx="66" cy="130" r="2"></circle>
                <circle id="Oval-Copy-40" cx="66" cy="66" r="2"></circle>
                <circle id="Oval-Copy-81" cx="66" cy="194" r="2"></circle>
                <circle id="Oval-Copy-20" cx="66" cy="34" r="2"></circle>
                <circle id="Oval-Copy-82" cx="66" cy="162" r="2"></circle>
                <circle id="Oval-Copy-41" cx="66" cy="98" r="2"></circle>
                <circle id="Oval-Copy-83" cx="66" cy="226" r="2"></circle>
                <circle id="Oval-Copy-10" cx="66" cy="18" r="2"></circle>
                <circle id="Oval-Copy-84" cx="66" cy="146" r="2"></circle>
                <circle id="Oval-Copy-42" cx="66" cy="82" r="2"></circle>
                <circle id="Oval-Copy-85" cx="66" cy="210" r="2"></circle>
                <circle id="Oval-Copy-21" cx="66" cy="50" r="2"></circle>
                <circle id="Oval-Copy-86" cx="66" cy="178" r="2"></circle>
                <circle id="Oval-Copy-43" cx="66" cy="114" r="2"></circle>
                <circle id="Oval-Copy-87" cx="66" cy="242" r="2"></circle>
                <circle id="Oval-Copy-5" cx="82" cy="2" r="2"></circle>
                <circle id="Oval-Copy-88" cx="82" cy="130" r="2"></circle>
                <circle id="Oval-Copy-44" cx="82" cy="66" r="2"></circle>
                <circle id="Oval-Copy-89" cx="82" cy="194" r="2"></circle>
                <circle id="Oval-Copy-22" cx="82" cy="34" r="2"></circle>
                <circle id="Oval-Copy-90" cx="82" cy="162" r="2"></circle>
                <circle id="Oval-Copy-45" cx="82" cy="98" r="2"></circle>
                <circle id="Oval-Copy-91" cx="82" cy="226" r="2"></circle>
                <circle id="Oval-Copy-11" cx="82" cy="18" r="2"></circle>
                <circle id="Oval-Copy-92" cx="82" cy="146" r="2"></circle>
                <circle id="Oval-Copy-46" cx="82" cy="82" r="2"></circle>
                <circle id="Oval-Copy-93" cx="82" cy="210" r="2"></circle>
                <circle id="Oval-Copy-23" cx="82" cy="50" r="2"></circle>
                <circle id="Oval-Copy-94" cx="82" cy="178" r="2"></circle>
                <circle id="Oval-Copy-47" cx="82" cy="114" r="2"></circle>
                <circle id="Oval-Copy-95" cx="82" cy="242" r="2"></circle>
            </g>
        </g>
    </g>
</svg>