<svg width="24" height="24" viewBox="0 0 24 24" xmlns="http://www.w3.org/2000/svg"><title>settings</title><g fill="none" class="nc-icon-wrapper"><path d="M12 15a3 3 0 1 0 0-6 3 3 0 0 0 0 6z" stroke="#000000" stroke-width="2" stroke-linecap="round" stroke-linejoin="round"/><path d="M21.79 10.763l-2.168-.368-1.097-2.65.358-.502.918-1.284a.259.259 0 0 0-.029-.339L18.39 4.237a.252.252 0 0 0-.334-.03l-1.79 1.276-2.707-1.113-.103-.608-.26-1.543a.26.26 0 0 0-.26-.219h-1.954a.261.261 0 0 0-.26.222l-.372 2.18-2.645 1.114-1.782-1.284a.252.252 0 0 0-.15-.046.251.251 0 0 0-.185.08L4.2 5.648a.263.263 0 0 0-.03.339l1.283 1.802-1.08 2.657-.611.103-1.543.26a.26.26 0 0 0-.219.26v1.955c0 .13.091.238.222.26l2.18.371L5.515 16.3l-.364.506-.912 1.267a.26.26 0 0 0 .03.34l1.383 1.382a.252.252 0 0 0 .334.03l1.804-1.285 2.606 1.072.102.61.26 1.559a.26.26 0 0 0 .26.219h1.958a.26.26 0 0 0 .26-.221l.367-2.166 2.651-1.098.502.36 1.289.92c.04.03.092.046.149.046.07 0 .132-.025.184-.078l1.384-1.383a.263.263 0 0 0 .029-.339l-1.276-1.792 1.098-2.651.608-.101 1.558-.26a.26.26 0 0 0 .22-.26v-1.97a.244.244 0 0 0-.21-.244z" stroke="#000000" stroke-width="2" stroke-linecap="round" stroke-linejoin="round"/></g></svg>